STARTFONT 2.1
FONT HAN-GB2312
SIZE 16 72 72
FONTBOUNDINGBOX 14 16 0 0
STARTPROPERTIES 1
BITCOUNT 8
ENDPROPERTIES
CHARS 22
STARTCHAR  00A7
ENCODING  167
SWIDTH  1000 0
DWIDTH  7 0
BBX  7 13 0 -2
BITMAP
0030E0C0C02000
00E0600040A000
00E04000008000
0060E040000000
60A040C0A01000
E010000060E030
C08000000020E0
10C0C0200010C0
000060E080A030
00000010A08000
00A0000010F000
00A0600040E000
0010A0E0C03000
ENDCHAR
STARTCHAR  00A8
ENCODING  168
SWIDTH  1000 0
DWIDTH  7 0
BBX  5 3 1 8
BITMAP
E0A000E0A0
A08040A0A0
0040200030
ENDCHAR
STARTCHAR  00B1
ENCODING  177
SWIDTH  1000 0
DWIDTH  7 0
BBX  7 8 0 1
BITMAP
00000080000000
000000C0000000
000000C0000000
40C0C0E0C0C040
000000A0000000
000000A0000000
00000000000000
40A0A0A0A0A030
ENDCHAR
STARTCHAR  00B7
ENCODING  183
SWIDTH  1000 0
DWIDTH  7 0
BBX  6 7 1 1
BITMAP
000020000000
30E0FFF06000
E0FFFFFFF010
FFFFFFFFFF30
C0FFFFFFE060
20C0FFE0A060
000060806000
ENDCHAR
STARTCHAR  00E0
ENCODING  224
SWIDTH  1000 0
DWIDTH  17 0
BBX  16 16 1 0
BITMAP
00000000308080601000000000000000
000000000080FFFF8030000000000000
00000000000080FFF060100000000000
0000000000000080FFA0400000000000
00000000000000002040403000000000
000000000060FFFFFF60100000000000
0000000000E0FFFFFFA0600000000000
0000000060FFF0F0FFFF304000000000
00000000E0FF6080FFFFA04000000000
00000040FFE03040F0FFF03030000000
000000C0FFFFFFFFFFFFFF8040000000
000030FFE060606060F0FFE030100000
0000A0FF8030303030A0FFFF60400000
FFFFFFFFFFFF80A0FFFFFFFFFFFFC020
C0C0C0C0C0C06080C0C0C0C0C0C08030
20404040404040604040404040404040
ENDCHAR
STARTCHAR  00E1
ENCODING  225
SWIDTH  1000 0
DWIDTH  17 0
BBX  16 16 1 0
BITMAP
00000000000000608060100000000000
00000000000060FFE030600000000000
000000000040FFE02060100000000000
0000000030F0E0206010000000000000
00000000104040400000000000000000
000000000060FFFFFF60100000000000
0000000000E0FFFFFFA0600000000000
0000000060FFF0F0FFFF304000000000
00000000E0FF6080FFFFA04000000000
00000040FFE03040F0FFF03030000000
000000C0FFFFFFFFFFFFFF8040000000
000030FFE060606060F0FFE030100000
0000A0FF8030303030A0FFFF60400000
FFFFFFFFFFFF80A0FFFFFFFFFFFFC020
C0C0C0C0C0C06080C0C0C0C0C0C08030
20404040404040604040404040404040
ENDCHAR
STARTCHAR  00E8
ENCODING  232
SWIDTH  1000 0
DWIDTH  14 0
BBX  13 16 1 0
BITMAP
00006080802000000000000000
000020E0FFC060000000000000
00000020F0FF80400000000000
0000000030F0F0603000000000
00000000001040406000000000
FFFFFFFFFFFFFFFFFFFFFF3000
C0C0FFFFFFC0C0C0F0FFFF4000
4040FFFFF060604030FFFF4000
0000FFFFF020000000F0FF4000
0000FFFFFFFFFF200040604000
0000FFFFFFE0E0100010100000
0000FFFFF060603000F0FF4030
0000FFFFF040000040FFFF1040
FFFFFFFFFFFFFFFFFFFFFF1040
C0C0C0C0C0C0C0C0C0C0C00040
40404040404040404040404060
ENDCHAR
STARTCHAR  00E9
ENCODING  233
SWIDTH  1000 0
DWIDTH  14 0
BBX  13 16 1 0
BITMAP
00000000108080400000000000
00000000A0FFC0304000000000
00000060FFE030600000000000
000020F0F04040000000000000
00001040403000000000000000
FFFFFFFFFFFFFFFFFFFFFF3000
C0C0FFFFFFC0C0C0F0FFFF4000
4040FFFFF060604030FFFF4000
0000FFFFF020000000F0FF4000
0000FFFFFFFFFF200040604000
0000FFFFFFE0E0100010100000
0000FFFFF060603000F0FF4030
0000FFFFF040000040FFFF1040
FFFFFFFFFFFFFFFFFFFFFF1040
C0C0C0C0C0C0C0C0C0C0C00040
40404040404040404040404060
ENDCHAR
STARTCHAR  00EA
ENCODING  234
SWIDTH  1000 0
DWIDTH  14 0
BBX  13 16 1 0
BITMAP
00000020808010000000000000
000010E0FFFFC0601000000000
0000C0FFA0C0FFA06000000000
0080FF806010A0FF8060000000
00204060100000404060200000
FFFFFFFFFFFFFFFFFFFFFF3000
C0C0FFFFFFC0C0C0F0FFFF4000
4040FFFFF060604030FFFF4000
0000FFFFF020000000F0FF4000
0000FFFFFFFFFF200040604000
0000FFFFFFE0E0100010100000
0000FFFFF060603000F0FF4030
0000FFFFF040000040FFFF1040
FFFFFFFFFFFFFFFFFFFFFF1040
C0C0C0C0C0C0C0C0C0C0C00040
40404040404040404040404060
ENDCHAR
STARTCHAR  00EC
ENCODING  236
SWIDTH  1000 0
DWIDTH  10 0
BBX  9 16 1 0
BITMAP
408080100000000000
10E0FFA06000000000
0020E0FF6040000000
000030F0FF40300000
000000104040601000
FFFFFFFFFFFFFFA030
C0C0FFFFFFC0C06060
2040F0FFFF00406060
0000F0FFFF00400000
0000F0FFFF00400000
0000F0FFFF00400000
0000F0FFFF00400000
0000F0FFFF00400000
FFFFFFFFFFFFFFA030
C0C0C0C0C0C0C08040
404040404040404060
ENDCHAR
STARTCHAR  00ED
ENCODING  237
SWIDTH  1000 0
DWIDTH  10 0
BBX  9 16 1 0
BITMAP
000020808080200000
0000C0FFE030600000
0080FFE03060100000
20F0E0304000000000
104040300000000000
FFFFFFFFFFFFFFA030
C0C0FFFFFFC0C06060
2040F0FFFF00406060
0000F0FFFF00400000
0000F0FFFF00400000
0000F0FFFF00400000
0000F0FFFF00400000
0000F0FFFF00400000
FFFFFFFFFFFFFFA030
C0C0C0C0C0C0C08040
404040404040404060
ENDCHAR
STARTCHAR  00F2
ENCODING  242
SWIDTH  1000 0
DWIDTH  14 0
BBX  13 16 1 0
BITMAP
000020E0FFC040000000000000
00000020E0FF80400000000000
0000000030F0FF602000000000
00000000003080606000000000
00000000000020404040000000
000030A0E0FFF0E08010000000
0060FFFFC0A0A0E0FFF0400000
40FFFF6060403020A0FFF02000
E0FFE0401000000020FFFF8030
F0FFC0400000000000FFFFA030
F0FFC0400000000000FFFFA030
A0FFE0400000000030FFFF6030
20E0FFA040204060E0FFC02020
0020A0F0FFFFFFFFF080104000
00002010304040300010400000
00000030404040404030000000
ENDCHAR
STARTCHAR  00F3
ENCODING  243
SWIDTH  1000 0
DWIDTH  14 0
BBX  13 16 1 0
BITMAP
0000000000E0FFE06010000000
00000000A0FFE0206010000000
00000040FFE020601000000000
000000A0802060100000000000
00000020404010000000000000
000030A0E0FFF0E08010000000
0060FFFFC0A0A0E0FFF0400000
40FFFF6060403020A0FFF02000
E0FFE0401000000020FFFF8030
F0FFC0400000000000FFFFA030
F0FFC0400000000000FFFFA030
A0FFE0400000000030FFFF6030
20E0FFA040204060E0FFC02020
0020A0F0FFFFFFFFF080104000
00002010304040300010400000
00000030404040404030000000
ENDCHAR
STARTCHAR  00F9
ENCODING  249
SWIDTH  1000 0
DWIDTH  16 0
BBX  15 16 1 0
BITMAP
00000010C0FFFF8010000000000000
0000000010C0FFE060000000000000
000000000010C0FFA0600000000000
00000000000010A0A0403000000000
000000000000000040406000000000
FFFFFFFFFFFFFF80FFFFFFFFFFFF20
E0C0E0FFFFC0C060E0C0E0FFC0C060
3060C0FFFF0060804060C0FF606060
0000C0FFFF0040000000A0FF600000
0000C0FFFF0040000000A0FF600000
0000C0FFFF0040000000A0FF600000
0000A0FFFF0030000000C0F0600000
000080FFFF8020001060F0E0600000
000000C0FFFFFFFFFFFFF040600000
00000000408080A080601060100000
000000003060404060606010000000
ENDCHAR
STARTCHAR  00FA
ENCODING  250
SWIDTH  1000 0
DWIDTH  16 0
BBX  15 16 1 0
BITMAP
00000000000030FFFFA04000000000
000000000010E0FFC0206000000000
0000000000C0FFC020600000000000
0000000030A0802040000000000000
000000000020404000000000000000
FFFFFFFFFFFFFF80FFFFFFFFFFFF20
E0C0E0FFFFC0C060E0C0E0FFC0C060
3060C0FFFF0060804060C0FF606060
0000C0FFFF0040000000A0FF600000
0000C0FFFF0040000000A0FF600000
0000C0FFFF0040000000A0FF600000
0000A0FFFF0030000000C0F0600000
000080FFFF8020001060F0E0600000
000000C0FFFFFFFFFFFFF040600000
00000000408080A080601060100000
000000003060404060606010000000
ENDCHAR
STARTCHAR  00FC
ENCODING  252
SWIDTH  1000 0
DWIDTH  16 0
BBX  15 14 1 0
BITMAP
0000000020E0E030F0600000000000
0000000010C0C060C0601000000000
000000000000303010400000000000
FFFFFFFFFFFFFFF0FFFFFFFFFFFF20
E0C0E0FFFFC0C0C0E0C0E0FFC0C060
3060C0FFFF0060804060A0FF606060
0000C0FFFF0040000000A0FF600000
0000C0FFFF0040000000A0FF600000
0000C0FFFF0040000000A0FF600000
0000A0FFFF0030000000A0F0600000
000080FFFF8020001040F0E0600000
000000C0FFFFFFFFFFFFF040600000
00000000408080A080601060100000
000000003060404060606010000000
ENDCHAR
STARTCHAR  2014
ENCODING  8212
SWIDTH  1000 0
DWIDTH  18 0
BBX  17 4 1 3
BITMAP
FFFFFFFFFFFFFFFFFFFFFFFFFFFFFF8030
FFFFFFFFFFFFFFFFFFFFFFFFFFFFFF8040
6020202020202020202020202020201040
3040404040404040404040404040404040
ENDCHAR
STARTCHAR  2018
ENCODING  8216
SWIDTH  1000 0
DWIDTH  5 0
BBX  4 7 1 4
BITMAP
00602000
60F04010
E0A03020
FFFFC020
FFFF8040
80603040
20404040
ENDCHAR
STARTCHAR  2019
ENCODING  8217
SWIDTH  1000 0
DWIDTH  4 0
BBX  4 6 0 5
BITMAP
A0FFE030
A0FFE030
40C0E030
00E08040
60C04020
00402000
ENDCHAR
STARTCHAR  201C
ENCODING  8220
SWIDTH  1000 0
DWIDTH  9 0
BBX  9 7 0 4
BITMAP
001080000000206000
00C0C0201010E0A010
30FF40402060FF1020
60FFFF803080FFFF30
60FFFF304080FFFF40
308060104040606040
004040404000404040
ENDCHAR
STARTCHAR  201D
ENCODING  8221
SWIDTH  1000 0
DWIDTH  10 0
BBX  10 7 0 4
BITMAP
20FFFFC030A0FFFF3020
20FFFFA040A0FFFF1040
10A0E0A03060C0FF1030
0000E080300080F00030
00A0F0303030F0802020
00A03040003080203000
00004000000030200000
ENDCHAR
STARTCHAR  2026
ENCODING  8230
SWIDTH  1000 0
DWIDTH  16 0
BBX  15 4 1 0
BITMAP
E0E0A02000A0E0E02020E0E0E04000
FFFFC04000C0FFFF0060FFFFFF4040
FFFFC04000C0FFFF0060FFFFFF4040
404040400030404040604040404030
ENDCHAR
ENDFONT
